<svg xmlns="http://www.w3.org/2000/svg" xmlns:xlink="http://www.w3.org/1999/xlink" width="59.851" height="62.207" viewBox="0 0 59.851 62.207">
  <defs>
    <linearGradient id="linear-gradient" y1="1" x2="1" y2="1" gradientUnits="objectBoundingBox">
      <stop offset="0" stop-color="#e5a253"/>
      <stop offset="1" stop-color="#ecbb83"/>
    </linearGradient>
  </defs>
  <path id="cart-percent" d="M18.429,50.381a5.81,5.81,0,1,1-5.81,5.81,5.827,5.827,0,0,1,5.81-5.81m29.048,0a5.81,5.81,0,1,1-5.81,5.81,5.827,5.827,0,0,1,5.81-5.81m-28.467-9.3a.625.625,0,0,0,.581.581h33.7v5.81H18.429a5.827,5.827,0,0,1-5.81-5.81,8.594,8.594,0,0,1,.581-2.9l3.776-6.971L6.81,9.714H1V3.9h9.586l12.49,26.143H43.41L54.738,9.714l4.938,2.9L48.348,32.952a5.623,5.623,0,0,1-4.938,2.9H21.624L19.01,40.5v.581M25.4,1a3.971,3.971,0,0,1,4.067,4.067,4.067,4.067,0,0,1-8.133,0A4.154,4.154,0,0,1,25.4,1M40.5,24.238a4.067,4.067,0,1,1,4.067-4.067A4.154,4.154,0,0,1,40.5,24.238m-15.686,0-3.486-3.486L41.086,1l3.486,3.486L24.819,24.238" transform="translate(-0.5 -0.293)" stroke="rgba(0,0,0,0)" stroke-width="1" fill="url(#linear-gradient)"/>
</svg>
