<svg id="Grupo_186" data-name="Grupo 186" xmlns="http://www.w3.org/2000/svg" xmlns:xlink="http://www.w3.org/1999/xlink" width="22.313" height="16.733" viewBox="0 0 22.313 16.733">
  <defs>
    <clipPath id="clip-path">
      <rect id="Retângulo_343" data-name="Retângulo 343" width="22.313" height="16.733" fill="none"/>
    </clipPath>
  </defs>
  <g id="Grupo_184" data-name="Grupo 184" clip-path="url(#clip-path)">
    <path id="Caminho_538" data-name="Caminho 538" d="M21.613,13.944H2.789V.7a.7.7,0,0,0-.7-.7H.7A.7.7,0,0,0,0,.7V15.339a1.4,1.4,0,0,0,1.394,1.394H21.613a.7.7,0,0,0,.7-.7V14.641a.7.7,0,0,0-.7-.7M20.3,11.367a.7.7,0,0,0,.7-.7V5.522a1.046,1.046,0,0,0-1.788-.74L17.8,6.194,13.624,2.009h0a1.393,1.393,0,0,0-1.971,0l-3.2,3.2L6.445,3.2a.7.7,0,0,0-.986,0l-.986.986a.7.7,0,0,0,0,.986L7.461,8.167h0a1.393,1.393,0,0,0,1.971,0l3.2-3.2,3.2,3.2L14.421,9.582a1.046,1.046,0,0,0,.739,1.785Z" transform="translate(0 0)" fill="#fe6868"/>
  </g>
</svg>
