<svg xmlns="http://www.w3.org/2000/svg" width="22.311" height="16.733" viewBox="0 0 22.311 16.733">
  <path id="Icon_awesome-chart-line" data-name="Icon awesome-chart-line" d="M21.613,18.444H2.789V5.2a.7.7,0,0,0-.7-.7H.7a.7.7,0,0,0-.7.7V19.839a1.4,1.4,0,0,0,1.394,1.394H21.613a.7.7,0,0,0,.7-.7V19.141A.7.7,0,0,0,21.613,18.444ZM20.3,6.1H15.16a1.046,1.046,0,0,0-.739,1.785L15.833,9.3l-3.2,3.2-3.2-3.2a1.394,1.394,0,0,0-1.972,0L4.473,12.294a.7.7,0,0,0,0,.986l.986.986a.7.7,0,0,0,.986,0l2.007-2.008,3.2,3.2a1.394,1.394,0,0,0,1.972,0L17.8,11.273l1.412,1.412A1.046,1.046,0,0,0,21,11.945V6.8A.7.7,0,0,0,20.3,6.1Z" transform="translate(0 -4.5)" fill="#00bd13"/>
</svg>
