<svg xmlns="http://www.w3.org/2000/svg" width="52.876" height="38.455" viewBox="0 0 52.876 38.455">
  <path id="mailbox-open-up-outline" d="M32.245,25.481V11.06h9.614v4.807H37.052v9.614H32.245M41.859,3.85H17.824A12.017,12.017,0,0,0,5.807,15.867V37.5H1v4.807H49.069A4.807,4.807,0,0,0,53.876,37.5V15.867A12.017,12.017,0,0,0,41.859,3.85M25.035,37.5H10.614V15.867a7.21,7.21,0,0,1,14.421,0V37.5m24.035,0H29.841V15.867a11.932,11.932,0,0,0-2.4-7.21H41.859a7.21,7.21,0,0,1,7.21,7.21Z" transform="translate(-1 -3.85)" fill="#174290"/>
</svg>
