<svg xmlns="http://www.w3.org/2000/svg" xmlns:xlink="http://www.w3.org/1999/xlink" width="12.341" height="13" viewBox="0 0 12.341 13"><defs><clipPath id="a"><rect width="12.341" height="13" fill="#174290"/></clipPath></defs><g clip-path="url(#a)"><path d="M7.663,51.841a5.794,5.794,0,0,0-1.715-1.476,2.154,2.154,0,0,0-1.286-.308,1.116,1.116,0,0,0-.915.63l-.327.663c-.506,1.027-1.03,2.09-1.549,3.133a.35.35,0,0,1-.108.118c-.17.12-.347.239-.518.354-.15.1-.3.2-.455.31A1.739,1.739,0,0,0,0,56.711a1.832,1.832,0,0,0,.545,1.356,1.868,1.868,0,0,0,1.366.542,1.738,1.738,0,0,0,.727-.185l.491.724q.565.833,1.132,1.666A1.29,1.29,0,0,0,5.32,61.4a1.17,1.17,0,0,0,.384-.065,1.223,1.223,0,0,0,.771-.761,1.242,1.242,0,0,0-.157-1.088c-.274-.413-.558-.829-.832-1.232l-.374-.55-.134-.2.476-.038c.887-.071,1.8-.145,2.706-.214a1.157,1.157,0,0,0,.757-.346,1.41,1.41,0,0,0,.372-.732A3.1,3.1,0,0,0,9.2,54.721a7.6,7.6,0,0,0-1.538-2.88m-.8,3.954a6.852,6.852,0,0,1-2.3-3.474,3.531,3.531,0,0,1-.086-.45c-.008-.056-.016-.11-.025-.162s.006-.085.009-.123c.006-.083.01-.149.02-.21a.481.481,0,0,1,.176-.326.485.485,0,0,1,.371-.036,2.2,2.2,0,0,1,.859.432,6.867,6.867,0,0,1,2.4,3.511,1.958,1.958,0,0,1,.058.925.56.56,0,0,1-.154.319.346.346,0,0,1-.34.111,2.38,2.38,0,0,1-1-.518M3.447,57.9c.156-.107.3-.208.454-.306l.426.628q.6.88,1.194,1.761a.328.328,0,0,1,.049.3.273.273,0,0,1-.2.165.3.3,0,0,1-.314-.147q-.471-.692-.94-1.384l-.4-.587-.286-.421.015-.01m.531-1.26-.008-.011c-.358-.538-.728-1.08-1.086-1.6l-.133-.194c.309-.625.621-1.261.922-1.876l.056-.114a7.845,7.845,0,0,0,2.46,3.622l-.709.057-.425.033c-.347.027-.706.055-1.06.087h-.02m-.891.363-.155.107c-.2.136-.4.277-.608.411a.845.845,0,0,1-1.2-.251.846.846,0,0,1,.2-1.221c.213-.151.426-.295.651-.446l.112-.076Z" transform="translate(0 -48.401)" fill="#174290"/><path d="M275.25,57.555h.051l.045-.021.016-.007a.852.852,0,0,0,.156-.076c.556-.362,1.116-.73,1.591-1.042a.541.541,0,0,0,.25-.345.459.459,0,0,0-.078-.35.478.478,0,0,0-.694-.1l-.6.393-.313.206-.22.144c-.164.107-.333.218-.5.329a.462.462,0,0,0-.194.559.474.474,0,0,0,.488.31" transform="translate(-265.706 -53.687)" fill="#174290"/><path d="M289.433,138.29c-.212-.037-.428-.076-.637-.114l-.267-.048-1.034-.185h-.015a.477.477,0,0,0-.521.4.467.467,0,0,0,.348.525,1.454,1.454,0,0,0,.152.032l.037.006.373.067,1.4.253a.588.588,0,0,0,.1.009.5.5,0,0,0,.3-.093.469.469,0,0,0,.188-.319.478.478,0,0,0-.427-.53" transform="translate(-277.524 -133.41)" fill="#174290"/><path d="M238.289,2.756l.051,0a.467.467,0,0,0,.468-.427c.012-.093.021-.186.03-.277L239,.51V.493A.466.466,0,0,0,238.58,0a.478.478,0,0,0-.344.094.462.462,0,0,0-.177.321c-.061.575-.122,1.171-.185,1.819a.483.483,0,0,0,.1.349.456.456,0,0,0,.317.171" transform="translate(-230.057 0.001)" fill="#174290"/><path d="M150.472,122.206h0a1.454,1.454,0,0,0-.762.265.471.471,0,0,0,.478.81c.028-.014.051-.028.071-.04l.034-.02a.57.57,0,0,1,.627.04.564.564,0,0,1,.248.573.609.609,0,0,1-.266.423.471.471,0,0,0,.276.85.457.457,0,0,0,.145-.024.729.729,0,0,0,.215-.125,1.544,1.544,0,0,0,.5-1.712,1.585,1.585,0,0,0-1.569-1.041" transform="translate(-144.587 -118.191)" fill="#174290"/></g></svg>