<svg xmlns="http://www.w3.org/2000/svg" xmlns:xlink="http://www.w3.org/1999/xlink" width="11.157" height="13" viewBox="0 0 11.157 13"><defs><clipPath id="a"><rect width="11.157" height="13" fill="#174290"/></clipPath></defs><g clip-path="url(#a)"><path d="M11.077,61.162c-.077-.135-.157-.271-.235-.4-.177-.3-.359-.611-.521-.923a1.121,1.121,0,0,0-.671-.574c-.407-.144-.816-.307-1.212-.464l-.4-.158a2.462,2.462,0,0,0-1.068-2.7,2.362,2.362,0,0,0-2.7-.053,2.462,2.462,0,0,0-1.153,2.758l-.03.012-.446.174c-.458.178-.931.362-1.4.547a.5.5,0,0,0-.244.2c-.315.533-.628,1.079-.93,1.607l-.007.012a.372.372,0,0,0-.05.312.381.381,0,0,0,.243.218l.157.063c.165.066.336.134.509.195A.122.122,0,0,1,.968,62a.116.116,0,0,1,.005.048c0,.669,0,1.348,0,2.005v.528a.363.363,0,0,0,.281.411l.635.248c1.147.447,2.332.909,3.5,1.366a.534.534,0,0,0,.2.039.546.546,0,0,0,.2-.04L8.7,65.462,9.891,65a.376.376,0,0,0,.3-.438v-.527c0-.657,0-1.337,0-2.005a.152.152,0,0,1,0-.03.148.148,0,0,1,.027-.012c.178-.063.356-.133.527-.2l.138-.055a.414.414,0,0,0,.26-.225.42.42,0,0,0-.064-.341M5.921,62.63l.164.285.126.219c.153.266.272.309.553.2L8.1,62.814l1.429-.557v.618q0,.762,0,1.523c0,.008,0,.021,0,.03-.947.366-1.908.741-2.838,1.1l-.767.3ZM5.1,61.541l-.636,1.1L.815,61.222l.635-1.1ZM1.635,62.62v-.364l1.2.466,1.592.619a.349.349,0,0,0,.509-.178l.308-.534v3.2L5.176,65.8l-.511-.2-.757-.3c-.735-.287-1.495-.583-2.243-.872a.151.151,0,0,1-.03-.014.136.136,0,0,1,0-.03c0-.588,0-1.164,0-1.774m8.711-1.4L6.7,62.645l-.636-1.1.053-.021.9-.35c.879-.342,1.787-.7,2.68-1.047l.02-.007.008.014c.166.3.333.588.511.894l.115.2M2.214,59.7l1.142-.454a2.459,2.459,0,0,0,2.225,1.318h0A2.46,2.46,0,0,0,7.8,59.249l1.143.454-.245.1-.454.177c-.853.333-1.734.677-2.6,1.012A.173.173,0,0,1,5.554,61c-1.03-.4-2.076-.8-3.088-1.2Zm3.377.206H5.583a1.868,1.868,0,0,1-.008-3.737h.008a1.865,1.865,0,0,1,1.858,1.859,1.867,1.867,0,0,1-1.85,1.877" transform="translate(-0.001 -53.641)" fill="#174290"/><path d="M96.782,16.23l.054.092.069.121c.063.11.128.223.2.334a.322.322,0,0,0,.271.169.294.294,0,0,0,.137-.035.524.524,0,0,0,.154-.137c.012-.015.024-.028.034-.038l.057-.058-.025-.077c-.007-.023-.013-.041-.017-.057a.415.415,0,0,0-.037-.1l-.051-.089c-.135-.237-.275-.482-.418-.721a.323.323,0,0,0-.449-.123.331.331,0,0,0-.12.459c.047.088.1.174.146.258" transform="translate(-93.377 -14.953)" fill="#174290"/><path d="M158.1,1.6h0a.333.333,0,0,0,.331-.355c0-.1,0-.206,0-.306q0-.066,0-.132t0-.136c0-.1,0-.21,0-.315A.331.331,0,0,0,158.1,0h0a.33.33,0,0,0-.331.354c0,.3,0,.6,0,.886a.334.334,0,0,0,.331.355" transform="translate(-152.517)" fill="#174290"/><path d="M51.3,60.2c.309.19.593.354.868.5a.293.293,0,0,0,.292-.008.372.372,0,0,0,.169-.329v-.037L52.6,60.29l-.007-.014a.335.335,0,0,0-.12-.149c-.272-.165-.556-.33-.843-.49a.305.305,0,0,0-.425.12.348.348,0,0,0-.053.229.291.291,0,0,0,.14.209" transform="translate(-49.452 -57.613)" fill="#174290"/><path d="M205.016,18.57l.042,0,.036-.024.017-.009a.358.358,0,0,0,.152-.125c.153-.252.311-.524.482-.834a.329.329,0,0,0-.568-.331c-.147.245-.319.536-.481.835a.315.315,0,0,0,0,.309.371.371,0,0,0,.318.176" transform="translate(-197.852 -16.526)" fill="#174290"/><path d="M238.526,63.506a.319.319,0,0,0,.279.163.372.372,0,0,0,.182-.05c.3-.166.543-.308.789-.459a.42.42,0,0,0,.133-.149l.012-.019.029-.037v-.047a.37.37,0,0,0-.174-.325.323.323,0,0,0-.319,0c-.286.158-.565.322-.8.462a.327.327,0,0,0-.129.458" transform="translate(-230.548 -60.463)" fill="#174290"/><path d="M251.207,123.908h-.142c-.1,0-.213,0-.32,0a.322.322,0,0,0-.341.326.327.327,0,0,0,.337.336c.148,0,.3,0,.451,0s.3,0,.46,0a.332.332,0,1,0-.007-.663c-.1,0-.208,0-.309,0h-.128" transform="translate(-242.077 -119.787)" fill="#174290"/><path d="M34.525,121.366l.174,0h.265c.045,0,.09,0,.136,0,.1,0,.209,0,.315,0a.332.332,0,1,0,0-.663c-.3,0-.6,0-.885,0a.332.332,0,1,0,0,.662" transform="translate(-33.038 -116.688)" fill="#174290"/><path d="M135.037,105.77l-.386.387-.188.188-.095-.118a.424.424,0,1,0-.662.529c.116.149.24.305.379.478a.441.441,0,0,0,.318.173h.022a.441.441,0,0,0,.31-.136c.274-.272.569-.568.9-.9a.425.425,0,1,0-.6-.6" transform="translate(-129.164 -102.118)" fill="#174290"/></g></svg>