<svg xmlns="http://www.w3.org/2000/svg" xmlns:xlink="http://www.w3.org/1999/xlink" width="9.969" height="13" viewBox="0 0 9.969 13"><defs><clipPath id="a"><rect width="9.969" height="13" fill="#174290"/></clipPath></defs><g clip-path="url(#a)"><path d="M9.957,12.086c-.019-.175-.033-.354-.046-.527q-.009-.113-.018-.226l-.076-.92q-.066-.8-.133-1.594-.048-.577-.1-1.154-.058-.692-.116-1.384-.032-.389-.064-.778c-.038-.464-.077-.943-.118-1.414a.693.693,0,0,0-.745-.672H7.687c0-.007,0-.013,0-.02,0-.081,0-.163,0-.244,0-.177,0-.361,0-.542A2.7,2.7,0,0,0,5.728.106C5.621.076,5.512.054,5.406.033L5.262,0,5.248,0H4.721L4.707,0l-.038.01a.447.447,0,0,1-.055.012A2.651,2.651,0,0,0,3.09.777a2.584,2.584,0,0,0-.769,1.511,6.426,6.426,0,0,0-.033.767c0,.111,0,.225,0,.337q0,.011,0,.023H1.426a.7.7,0,0,0-.745.671c-.026.283-.049.57-.072.848q-.016.2-.033.4L.489,6.39Q.412,7.314.335,8.237l0,.022C.319,8.432.3,8.61.295,8.787a.3.3,0,0,0,.266.329A.309.309,0,0,0,.92,8.86a.932.932,0,0,0,.017-.134c0-.01,0-.021,0-.031l.067-.811q.046-.555.092-1.109.036-.437.073-.873c.047-.554.095-1.127.141-1.691.009-.114.023-.136.027-.141s.025-.016.14-.016H5.431a1.073,1.073,0,0,0,.142-.006.315.315,0,0,0,.038-.618.729.729,0,0,0-.172-.014H2.921V3.393c0-.1,0-.2,0-.3s.006-.168.008-.249a3.4,3.4,0,0,1,.052-.619,2.055,2.055,0,0,1,4.031.146,5.678,5.678,0,0,1,.029.786c0,.085,0,.172,0,.259H6.405c-.277,0-.377.171-.378.316s.095.317.373.322H8.528c.119,0,.119,0,.129.118q.094,1.13.189,2.26l.48,5.753a.369.369,0,0,1,0,.158s-.03.018-.153.018H.764a.451.451,0,0,1-.068,0C.647,12.354.642,12.34.641,12.3a1.1,1.1,0,0,1,.006-.132Q.7,11.5.76,10.833l.1-1.15A.324.324,0,0,0,.582,9.3a.307.307,0,0,0-.235.062.36.36,0,0,0-.123.26c-.026.292-.051.589-.076.877l-.008.09q-.031.37-.062.741-.037.441-.074.882a.623.623,0,0,0,.163.535,1.257,1.257,0,0,0,.246.172c.035.02.067.039.1.059L.544,13H9.415l.025-.011a.736.736,0,0,0,.517-.9" transform="translate(0)" fill="#174290"/><path d="M75.131,177.117a.5.5,0,0,0,.163.549c.126.121.252.244.375.364s.243.237.365.355c.032.031.031.033.026.061-.046.24-.088.485-.127.721q-.025.148-.05.3a.512.512,0,0,0,.191.553.482.482,0,0,0,.286.1.628.628,0,0,0,.3-.084c.138-.075.28-.149.417-.221s.3-.157.45-.238c.078-.042.094-.037.129-.016a.3.3,0,0,0,.233.034.321.321,0,0,0,.2-.159.316.316,0,0,0-.115-.421.6.6,0,0,0-.673-.039c-.219.124-.441.238-.676.359l-.073.037.016-.112a4.172,4.172,0,0,1,.1-.535.812.812,0,0,0-.3-.91,4.564,4.564,0,0,1-.419-.429l-.018-.02.023,0c.27-.04.549-.081.823-.118a.529.529,0,0,0,.43-.306c.09-.185.183-.373.273-.554l.072-.146.051-.1.028.056c.122.246.247.5.369.75a.512.512,0,0,0,.391.3c.113.018.228.034.339.049l.2.029.37.055-.1.095c-.171.167-.347.34-.523.507a.561.561,0,0,0-.177.546c.048.253.09.5.134.772l.016.1-.026,0a.455.455,0,0,0-.295.1.271.271,0,0,0-.093.205.275.275,0,0,0,.1.208.71.71,0,0,0,.559.219.477.477,0,0,0,.334-.187.594.594,0,0,0,.089-.458l-.032-.192c-.046-.271-.093-.551-.144-.826-.006-.031-.005-.031.017-.052.168-.16.336-.324.5-.483l.261-.254a.506.506,0,0,0-.287-.889c-.171-.023-.345-.049-.513-.074s-.338-.05-.507-.073c-.055-.008-.067-.018-.084-.056-.09-.193-.186-.387-.279-.574-.058-.118-.117-.235-.174-.353a.5.5,0,0,0-.463-.315H77.6a.5.5,0,0,0-.47.316c-.058.121-.118.241-.178.361-.09.181-.183.368-.27.555-.021.045-.037.059-.1.068-.174.023-.35.049-.52.074s-.318.047-.476.068a.5.5,0,0,0-.452.351" transform="translate(-72.614 -169.509)" fill="#174290"/><path d="M79.753,335.75H75.583a.985.985,0,0,0-.131.005.315.315,0,0,0-.027.621.7.7,0,0,0,.148.011h4.179a.7.7,0,0,0,.167-.015.314.314,0,0,0-.034-.617.908.908,0,0,0-.133-.006" transform="translate(-72.681 -324.615)" fill="#174290"/><path d="M86.36,174.938a.307.307,0,0,0,.2.081.315.315,0,0,0,.224-.1.3.3,0,0,0,.015-.428c-.113-.127-.236-.243-.341-.342a.357.357,0,0,0-.125-.07l-.05-.021-.076-.035-.064.053c-.01.008-.024.017-.038.027a.323.323,0,0,0-.14.15.357.357,0,0,0,.037.323,3.139,3.139,0,0,0,.354.36" transform="translate(-83.097 -168.254)" fill="#174290"/><path d="M187.119,176.076l.031.022.055.046.069-.021.044-.011a.248.248,0,0,0,.126-.058L187.5,176c.113-.108.231-.22.336-.342a.285.285,0,0,0-.047-.408.3.3,0,0,0-.414-.006,3.271,3.271,0,0,0-.354.359.36.36,0,0,0-.041.322.319.319,0,0,0,.14.151" transform="translate(-180.759 -169.355)" fill="#174290"/><path d="M62.947,267.613a.3.3,0,0,0,.025.417.318.318,0,0,0,.224.1.291.291,0,0,0,.193-.074c.13-.113.247-.238.361-.358a.308.308,0,0,0,.065-.128c0-.015.01-.031.017-.049l.029-.072-.049-.06c-.007-.008-.015-.021-.024-.034a.345.345,0,0,0-.143-.139.338.338,0,0,0-.32.029,3.38,3.38,0,0,0-.377.37" transform="translate(-60.787 -258.326)" fill="#174290"/><path d="M209.695,267.621a.344.344,0,0,0,.143-.139c.009-.013.017-.025.023-.034l.047-.059-.026-.071c-.006-.017-.01-.032-.014-.046a.277.277,0,0,0-.062-.125l-.031-.032c-.11-.115-.224-.235-.348-.342a.292.292,0,0,0-.407.031.3.3,0,0,0-.023.417,3.381,3.381,0,0,0,.376.37.278.278,0,0,0,.178.056.373.373,0,0,0,.143-.027" transform="translate(-201.994 -257.861)" fill="#174290"/></g></svg>