<svg xmlns="http://www.w3.org/2000/svg" xmlns:xlink="http://www.w3.org/1999/xlink" width="60" height="60" viewBox="0 0 60 60">
  <defs>
    <linearGradient id="linear-gradient" y1="1" x2="1" y2="1" gradientUnits="objectBoundingBox">
      <stop offset="0" stop-color="#00afa5"/>
      <stop offset="1" stop-color="#62e854"/>
    </linearGradient>
  </defs>
  <path id="wallet-bifold-outline" d="M44.667,44.667a5,5,0,1,0-5-5,4.993,4.993,0,0,0,5,5M16.333,3H49.667a6.665,6.665,0,0,1,6.667,6.667v6.667A6.665,6.665,0,0,1,63,23V56.333A6.644,6.644,0,0,1,56.333,63h-40A13.33,13.33,0,0,1,3,49.667V16.333A13.33,13.33,0,0,1,16.333,3M49.667,16.333V9.667H16.333a6.686,6.686,0,0,0-6.667,6.667v1.8a13.3,13.3,0,0,1,6.667-1.8H49.667m-40,33.333a6.665,6.665,0,0,0,6.667,6.667h40V23h-40a6.686,6.686,0,0,0-6.667,6.667Z" transform="translate(-3 -3)" fill="url(#linear-gradient)"/>
</svg>
